<svg xmlns="http://www.w3.org/2000/svg" xmlns:xlink="http://www.w3.org/1999/xlink" version="1.1" x="0px" y="0px" viewBox="0 0 100 100" enable-background="new 0 0 100 100" xml:space="preserve"><path fill="#FCF1DD" d="M50.75,32.133v-3.44h9.152c0.007,0.001,0.015,0.001,0.02,0c0.415,0,0.75-0.336,0.75-0.75c0-0.175-0.059-0.335-0.159-0.462  l-1.456-3.062l1.523-3.201c0.11-0.232,0.094-0.506-0.044-0.723c-0.137-0.218-0.377-0.35-0.634-0.35H50  c-0.414,0-0.75,0.336-0.75,0.75v11.238c-12.815,0.398-23.121,10.94-23.121,23.852c0,13.162,10.708,23.871,23.871,23.871  c13.162,0,23.871-10.709,23.871-23.871C73.871,43.073,63.565,32.531,50.75,32.133z M50.75,21.645h7.965l-1.166,2.451  c-0.097,0.205-0.097,0.441,0,0.645l1.166,2.452H50.75V21.645z M50,78.355c-12.335,0-22.371-10.035-22.371-22.371  S37.665,33.613,50,33.613c12.336,0,22.371,10.035,22.371,22.371S62.336,78.355,50,78.355z M41.369,48.07  c2.173,0,3.942-1.769,3.942-3.941c0-2.174-1.77-3.941-3.942-3.941s-3.941,1.768-3.941,3.941  C37.428,46.302,39.196,48.07,41.369,48.07z M41.369,41.688c1.347,0,2.442,1.095,2.442,2.441c0,1.346-1.096,2.441-2.442,2.441  s-2.441-1.096-2.441-2.441C38.928,42.782,40.022,41.688,41.369,41.688z M42.723,56.103c-3.888,0-7.05,3.163-7.05,7.051  s3.162,7.05,7.05,7.05s7.05-3.162,7.05-7.05S46.61,56.103,42.723,56.103z M42.723,68.703c-3.061,0-5.55-2.489-5.55-5.55  s2.489-5.551,5.55-5.551s5.55,2.49,5.55,5.551S45.783,68.703,42.723,68.703z M60.437,46.572c-3.041,0-5.516,2.475-5.516,5.516  s2.475,5.515,5.516,5.515s5.515-2.474,5.515-5.515S63.478,46.572,60.437,46.572z M60.437,56.103c-2.214,0-4.016-1.801-4.016-4.015  c0-2.215,1.802-4.016,4.016-4.016s4.015,1.801,4.015,4.016C64.451,54.302,62.65,56.103,60.437,56.103z M57.887,66.35  c-1.456,0-2.641,1.185-2.641,2.641s1.185,2.641,2.641,2.641c1.455,0,2.64-1.185,2.64-2.641S59.342,66.35,57.887,66.35z   M57.887,70.131c-0.629,0-1.141-0.512-1.141-1.141s0.512-1.141,1.141-1.141c0.628,0,1.14,0.512,1.14,1.141  S58.515,70.131,57.887,70.131z"></path></svg>
